<svg width="20" height="20" viewBox="0 0 20 20" fill="none" xmlns="http://www.w3.org/2000/svg">
<path d="M9.83333 4.4445C9.83333 6.05533 8.5275 7.36117 6.91667 7.36117C5.30584 7.36117 4 6.05533 4 4.4445C4 2.83367 5.30584 1.52783 6.91667 1.52783C8.5275 1.52783 9.83333 2.83367 9.83333 4.4445ZM5.75 4.4445C5.75 5.08883 6.27233 5.61117 6.91667 5.61117C7.561 5.61117 8.08333 5.08883 8.08333 4.4445C8.08333 3.80017 7.561 3.27783 6.91667 3.27783C6.27233 3.27783 5.75 3.80017 5.75 4.4445Z" fill="black"/>
<path d="M17.1666 7.75004C17.1666 9.36087 15.8608 10.6667 14.25 10.6667C12.6391 10.6667 11.3333 9.36087 11.3333 7.75004C11.3333 6.13921 12.6391 4.83337 14.25 4.83337C15.8608 4.83337 17.1666 6.13921 17.1666 7.75004ZM13.0833 7.75004C13.0833 8.39437 13.6056 8.91671 14.25 8.91671C14.8943 8.91671 15.4166 8.39437 15.4166 7.75004C15.4166 7.10571 14.8943 6.58337 14.25 6.58337C13.6056 6.58337 13.0833 7.10571 13.0833 7.75004Z" fill="black"/>
<path d="M9.83333 16.0834C9.83333 17.6942 8.5275 19 6.91667 19C5.30584 19 4 17.6942 4 16.0834C4 14.4725 5.30584 13.1667 6.91667 13.1667C8.5275 13.1667 9.83333 14.4725 9.83333 16.0834ZM5.75 16.0834C5.75 16.7277 6.27233 17.25 6.91667 17.25C7.561 17.25 8.08333 16.7277 8.08333 16.0834C8.08333 15.439 7.561 14.9167 6.91667 14.9167C6.27233 14.9167 5.75 15.439 5.75 16.0834Z" fill="black"/>
<rect x="6" y="6.5" width="2" height="8" fill="black"/>
<path d="M13.25 10.5C13.25 10.0858 13.5858 9.74999 14 9.74999L14.587 9.74999C15.0445 9.74999 15.3749 10.188 15.2492 10.6279L14.9522 11.6672C14.6846 12.6041 13.8283 13.25 12.8539 13.25L9.66568 13.25C9.26185 13.25 8.89687 13.4907 8.7378 13.8618L8.68305 13.9896C8.45949 14.5112 7.81347 14.6964 7.34755 14.3723V14.3723C6.9338 14.0845 6.83863 13.5123 7.13695 13.106L7.8698 12.1081C8.26601 11.5686 8.89538 11.25 9.56474 11.25L12.5 11.25C12.9142 11.25 13.25 10.9142 13.25 10.5V10.5Z" fill="black"/>
</svg>
