<svg width="40" height="40" viewBox="0 0 40 40" fill="none" xmlns="http://www.w3.org/2000/svg">
<path d="M19.6667 8.889C19.6667 12.1107 17.055 14.7223 13.8333 14.7223C10.6117 14.7223 8 12.1107 8 8.889C8 5.66734 10.6117 3.05566 13.8333 3.05566C17.055 3.05566 19.6667 5.66734 19.6667 8.889ZM11.5 8.889C11.5 10.1777 12.5447 11.2223 13.8333 11.2223C15.122 11.2223 16.1667 10.1777 16.1667 8.889C16.1667 7.60033 15.122 6.55566 13.8333 6.55566C12.5447 6.55566 11.5 7.60033 11.5 8.889Z" fill="black"/>
<path d="M34.3333 15.5001C34.3333 18.7217 31.7217 21.3334 28.5 21.3334C25.2783 21.3334 22.6667 18.7217 22.6667 15.5001C22.6667 12.2784 25.2783 9.66675 28.5 9.66675C31.7217 9.66675 34.3333 12.2784 34.3333 15.5001ZM26.1667 15.5001C26.1667 16.7887 27.2113 17.8334 28.5 17.8334C29.7887 17.8334 30.8333 16.7887 30.8333 15.5001C30.8333 14.2114 29.7887 13.1667 28.5 13.1667C27.2113 13.1667 26.1667 14.2114 26.1667 15.5001Z" fill="black"/>
<path d="M19.6667 32.1667C19.6667 35.3884 17.055 38 13.8333 38C10.6117 38 8 35.3884 8 32.1667C8 28.945 10.6117 26.3334 13.8333 26.3334C17.055 26.3334 19.6667 28.945 19.6667 32.1667ZM11.5 32.1667C11.5 33.4554 12.5447 34.5 13.8333 34.5C15.122 34.5 16.1667 33.4554 16.1667 32.1667C16.1667 30.878 15.122 29.8334 13.8333 29.8334C12.5447 29.8334 11.5 30.878 11.5 32.1667Z" fill="black"/>
<rect x="12" y="13" width="4" height="16" fill="black"/>
<path d="M26.5 21C26.5 20.1716 27.1716 19.5 28 19.5L29.1739 19.5C30.089 19.5 30.7497 20.3759 30.4983 21.2558L29.9045 23.3344C29.3691 25.2082 27.6565 26.5 25.7078 26.5L19.3313 26.5C18.5237 26.5 17.7937 26.9813 17.4756 27.7237L17.3661 27.9791C16.9189 29.0225 15.6269 29.3927 14.6951 28.7446V28.7446C13.8676 28.169 13.6772 27.0245 14.2739 26.2121L15.7396 24.2163C16.532 23.1373 17.7907 22.5 19.1294 22.5L25 22.5C25.8285 22.5 26.5 21.8284 26.5 21V21Z" fill="black"/>
</svg>
